<svg viewBox="0 0 100 100" fill="none" xmlns="http://www.w3.org/2000/svg">
  <circle cx="50" cy="40" r="25" fill="white" stroke="#0D0D0D" stroke-width="2"/>
  <ellipse cx="50" cy="42" rx="15" ry="12" fill="#00C26D" opacity="0.8"/>
  <rect x="35" y="60" width="30" height="25" rx="8" fill="white" stroke="#0D0D0D" stroke-width="2"/>
  <rect x="60" y="62" width="12" height="20" rx="3" fill="white" stroke="#0D0D0D" stroke-width="2"/>
  <rect x="20" y="65" width="18" height="8" rx="4" fill="white" stroke="#0D0D0D" stroke-width="2"/>
  <rect x="62" y="70" width="18" height="8" rx="4" fill="white" stroke="#0D0D0D" stroke-width="2"/>
  <line x1="50" y1="15" x2="50" y2="8" stroke="#6b6b6b" stroke-width="1.5"/>
  <circle cx="50" cy="6" r="3" fill="#00C26D"/>
  <path d="M38 35 Q42 30 48 32" stroke="white" stroke-width="1.5" fill="none" opacity="0.5"/>
  <polygon points="30,20 50,12 70,20 50,28" fill="#1a1a3e" stroke="#0D0D2B" stroke-width="1"/>
  <rect x="46" y="14" width="8" height="8" fill="#1a1a3e"/>
  <line x1="62" y1="20" x2="72" y2="28" stroke="#FFD700" stroke-width="1.5"/>
  <circle cx="72" cy="29" r="2" fill="#FFD700"/>
  <circle cx="43" cy="42" r="4" fill="none" stroke="rgba(255,255,255,0.4)" stroke-width="1"/>
  <circle cx="57" cy="42" r="4" fill="none" stroke="rgba(255,255,255,0.4)" stroke-width="1"/>
  <line x1="47" y1="42" x2="53" y2="42" stroke="rgba(255,255,255,0.4)" stroke-width="0.8"/>
  <rect x="20" y="62" width="14" height="10" rx="1" fill="#4C82A7" stroke="#3a6a8c" stroke-width="1"/>
  <line x1="27" y1="62" x2="27" y2="72" stroke="white" stroke-width="0.5"/>
</svg>
