<svg viewBox="0 0 100 100" fill="none" xmlns="http://www.w3.org/2000/svg">
  <circle cx="50" cy="40" r="25" fill="white" stroke="#0D0D0D" stroke-width="2"/>
  <ellipse cx="50" cy="42" rx="15" ry="12" fill="#00C26D" opacity="0.8"/>
  <rect x="35" y="60" width="30" height="25" rx="8" fill="white" stroke="#0D0D0D" stroke-width="2"/>
  <rect x="60" y="62" width="12" height="20" rx="3" fill="white" stroke="#0D0D0D" stroke-width="2"/>
  <rect x="20" y="65" width="18" height="8" rx="4" fill="white" stroke="#0D0D0D" stroke-width="2"/>
  <rect x="62" y="70" width="18" height="8" rx="4" fill="white" stroke="#0D0D0D" stroke-width="2"/>
  <line x1="50" y1="15" x2="50" y2="8" stroke="#6b6b6b" stroke-width="1.5"/>
  <circle cx="50" cy="6" r="3" fill="#00C26D"/>
  <path d="M38 35 Q42 30 48 32" stroke="white" stroke-width="1.5" fill="none" opacity="0.5"/>
  <ellipse cx="50" cy="22" rx="22" ry="5" fill="#1a1a3e" stroke="#0D0D2B" stroke-width="1"/>
  <path d="M32 22 Q35 12 50 10 Q65 12 68 22" fill="#1a1a3e" stroke="#0D0D2B" stroke-width="1"/>
  <circle cx="50" cy="20" r="4" fill="#FFD700" stroke="#DAA520" stroke-width="0.5"/>
  <rect x="65" y="58" width="20" height="6" rx="3" fill="#8B6914" stroke="#6B4F10" stroke-width="1"/>
  <rect x="82" y="57" width="6" height="8" rx="2" fill="#A0781C"/>
</svg>
