<svg viewBox="0 0 100 100" fill="none" xmlns="http://www.w3.org/2000/svg">
  <circle cx="50" cy="40" r="25" fill="white" stroke="#0D0D0D" stroke-width="2"/>
  <ellipse cx="50" cy="42" rx="15" ry="12" fill="#00C26D" opacity="0.8"/>
  <rect x="35" y="60" width="30" height="25" rx="8" fill="white" stroke="#0D0D0D" stroke-width="2"/>
  <rect x="60" y="62" width="12" height="20" rx="3" fill="white" stroke="#0D0D0D" stroke-width="2"/>
  <rect x="20" y="65" width="18" height="8" rx="4" fill="white" stroke="#0D0D0D" stroke-width="2"/>
  <rect x="62" y="70" width="18" height="8" rx="4" fill="white" stroke="#0D0D0D" stroke-width="2"/>
  <line x1="50" y1="15" x2="50" y2="8" stroke="#6b6b6b" stroke-width="1.5"/>
  <circle cx="50" cy="6" r="3" fill="#00C26D"/>
  <path d="M38 35 Q42 30 48 32" stroke="white" stroke-width="1.5" fill="none" opacity="0.5"/>
  <path d="M30 25 Q40 15 50 18 Q60 15 70 25" fill="#5C4033" stroke="#3D2B1F" stroke-width="1.5"/>
  <path d="M32 25 L28 30 M68 25 L72 30" stroke="#5C4033" stroke-width="2" stroke-linecap="round"/>
  <circle cx="25" cy="55" r="12" fill="none" stroke="#C0C0C0" stroke-width="2.5"/>
  <line x1="33" y1="63" x2="42" y2="72" stroke="#C0C0C0" stroke-width="3" stroke-linecap="round"/>
  <circle cx="25" cy="55" r="12" fill="rgba(173,216,230,0.2)"/>
</svg>
