<svg xmlns="http://www.w3.org/2000/svg" xmlns:xlink="http://www.w3.org/1999/xlink" viewBox="0 0 1200 630" width="1200" height="630">
  <defs>
    <style type="text/css"><![CDATA[
      @import url('https://fonts.googleapis.com/css2?family=Playfair+Display:ital,wght@0,500;0,600;1,500;1,600&amp;family=Source+Sans+3:wght@400;600;700&amp;display=swap');
    ]]></style>
    <linearGradient id="bg" x1="0" y1="0" x2="1" y2="1">
      <stop offset="0%" stop-color="#023E25"/>
      <stop offset="55%" stop-color="#045A35"/>
      <stop offset="100%" stop-color="#00C26D"/>
    </linearGradient>
    <radialGradient id="glow" cx="0.85" cy="0.15" r="0.7">
      <stop offset="0%" stop-color="#00E080" stop-opacity="0.35"/>
      <stop offset="100%" stop-color="#00C26D" stop-opacity="0"/>
    </radialGradient>
    <!-- Flattens the logo to pure white while preserving its alpha -->
    <filter id="whiteLogo" x="0" y="0" width="100%" height="100%">
      <feColorMatrix type="matrix" values="0 0 0 0 1
                                           0 0 0 0 1
                                           0 0 0 0 1
                                           0 0 0 1 0"/>
    </filter>
  </defs>

  <!-- Background -->
  <rect width="1200" height="630" fill="url(#bg)"/>
  <rect width="1200" height="630" fill="url(#glow)"/>

  <!-- Constellation network (top-right decorative) -->
  <g stroke="rgba(255,255,255,0.18)" stroke-width="1.2" fill="none">
    <line x1="900" y1="70" x2="1040" y2="130"/>
    <line x1="1040" y1="130" x2="1120" y2="90"/>
    <line x1="1040" y1="130" x2="1080" y2="220"/>
    <line x1="900" y1="70" x2="1080" y2="220"/>
    <line x1="1080" y1="220" x2="1150" y2="280"/>
    <line x1="900" y1="70" x2="830" y2="180"/>
    <line x1="830" y1="180" x2="1040" y2="130"/>
    <line x1="830" y1="180" x2="1080" y2="220"/>
  </g>
  <g fill="#FFFFFF">
    <circle cx="900" cy="70" r="5"/>
    <circle cx="1040" cy="130" r="6"/>
    <circle cx="1120" cy="90" r="4"/>
    <circle cx="1080" cy="220" r="5"/>
    <circle cx="1150" cy="280" r="3"/>
    <circle cx="830" cy="180" r="4"/>
  </g>
  <g fill="#00E080">
    <circle cx="1040" cy="130" r="10" opacity="0.25"/>
    <circle cx="1080" cy="220" r="9" opacity="0.25"/>
  </g>

  <!-- Bottom-left dot grid -->
  <g fill="rgba(255,255,255,0.12)">
    <circle cx="72" cy="540" r="2"/>
    <circle cx="110" cy="540" r="2"/>
    <circle cx="148" cy="540" r="2"/>
    <circle cx="72" cy="578" r="2"/>
    <circle cx="110" cy="578" r="2"/>
    <circle cx="148" cy="578" r="2"/>
  </g>

  <!-- Logo (white silhouette, top-left). Original aspect ~720x180 (4:1). -->
  <image x="70" y="60" width="420" height="105"
         href="logo.png" xlink:href="logo.png"
         filter="url(#whiteLogo)"
         preserveAspectRatio="xMidYMid meet"/>

  <!-- Main headline -->
  <text x="80" y="265" font-family="'Playfair Display', 'Georgia', serif"
        font-size="82" font-weight="500" fill="#FFFFFF" letter-spacing="-1.5">
    The Professional
  </text>
  <text x="80" y="355" font-family="'Playfair Display', 'Georgia', serif"
        font-size="82" font-weight="500" fill="#FFFFFF" letter-spacing="-1.5">
    Services <tspan fill="#7FE8B6" font-style="italic" font-weight="600">OS</tspan>
  </text>

  <!-- Supporting line -->
  <text x="80" y="425" font-family="'Source Sans 3', 'Helvetica Neue', Arial, sans-serif"
        font-size="26" font-weight="400" fill="rgba(255,255,255,0.82)">
    Scope. Price. Deliver. Learn. One system for the whole engagement.
  </text>

  <!-- CTA pill -->
  <g transform="translate(80, 470)">
    <rect x="0" y="0" width="340" height="64" rx="32"
          fill="#00C26D" stroke="rgba(255,255,255,0.25)" stroke-width="1.5"/>
    <text x="32" y="42" font-family="'Source Sans 3', 'Helvetica Neue', Arial, sans-serif"
          font-size="22" font-weight="700" fill="#023E25" letter-spacing="0.5">
      servantium.com
    </text>
    <g transform="translate(280, 25)" stroke="#023E25" stroke-width="2.5" fill="none"
       stroke-linecap="round" stroke-linejoin="round">
      <line x1="0" y1="7" x2="22" y2="7"/>
      <polyline points="14,0 22,7 14,14"/>
    </g>
  </g>

  <!-- Left accent bar -->
  <rect x="0" y="0" width="8" height="630" fill="#00C26D"/>
</svg>
