<svg clip-rule="evenodd" fill-rule="evenodd" stroke-linejoin="round" stroke-miterlimit="2" viewBox="0 0 220 33" xmlns="http://www.w3.org/2000/svg" xmlns:xlink="http://www.w3.org/1999/xlink"><clipPath id="a"><path clip-rule="evenodd" d="m0 0h220v32.66h-220z"/></clipPath><g clip-path="url(#a)" fill-rule="nonzero"><g fill="#636977"><path d="m44.2 4.51h2.38v24.74h-2.38z"/><path d="m51.27 11.75h2.06c0 .41.08.93.11 1.55s0 1.15 0 1.61c.26-.44.56-.86.89-1.25.38-.44.82-.83 1.29-1.15.53-.36 1.1-.64 1.7-.84.67-.22 1.38-.34 2.09-.33.83-.07 1.66.05 2.42.37.77.32 1.44.81 1.98 1.45 1 1.49 1.49 3.27 1.37 5.06v11.07c-.19.01-.38.01-.56 0h-1.11c-.2.01-.39.01-.59 0v-10.38c.1-1.43-.21-2.87-.91-4.12-.32-.42-.73-.76-1.21-.98s-1.01-.32-1.54-.28c-.78 0-1.55.16-2.27.48-.7.32-1.33.78-1.83 1.37-.55.67-.97 1.43-1.22 2.25-.32.99-.47 2.02-.45 3.05v8.66c-.19.01-.38.01-.56 0h-1.11c-.2.01-.39.01-.59 0l.04-17.58z"/><path d="m66.78 11.75c.2-.01.39-.01.59 0h1.4c.21-.01.41-.01.62 0l5.5 15.12 5.64-15.12c.18-.01.37-.01.55 0h1.24c.18-.01.37-.01.55 0l-6.98 17.53c-.35.07-.7.11-1.06.11-.37 0-.74-.04-1.1-.11l-6.94-17.53z"/><path d="m86.14 20.8c-.15 1.86.43 3.72 1.62 5.16.65.59 1.42 1.04 2.25 1.32s1.71.4 2.59.33c.82 0 1.63-.07 2.43-.22.74-.15 1.46-.35 2.17-.6.13.29.22.6.27.92.07.33.11.67.14 1-.75.32-1.53.55-2.34.69-.96.17-1.94.24-2.91.23-1.33.03-2.66-.19-3.9-.66-1.05-.4-2-1.04-2.75-1.88-.72-.83-1.24-1.8-1.54-2.86-.35-1.19-.52-2.43-.51-3.67 0-1.22.15-2.43.47-3.6.27-1.06.74-2.06 1.37-2.96.63-.86 1.46-1.54 2.42-1.99 1.11-.51 2.32-.76 3.53-.73 1.05-.02 2.09.19 3.07.59.87.37 1.64.93 2.25 1.64.62.73 1.09 1.58 1.37 2.5.31 1.03.46 2.1.45 3.18v1.62h-12.47zm10.31-1.9c0-.71-.09-1.41-.27-2.09-.16-.65-.45-1.26-.85-1.8-.4-.53-.92-.96-1.51-1.26-.7-.34-1.47-.5-2.24-.48-.69-.04-1.39.07-2.03.33s-1.23.65-1.71 1.15c-.96 1.17-1.53 2.61-1.62 4.12l10.24.03z"/><path d="m101.45 26.88c.63.24 1.29.42 1.95.54.76.15 1.53.22 2.31.22 1.16.06 2.3-.25 3.26-.91.37-.25.67-.59.88-.98s.32-.83.33-1.28c.02-.53-.11-1.06-.37-1.53-.24-.41-.57-.75-.96-1.02-.43-.28-.89-.51-1.38-.66l-1.55-.54c-.58-.18-1.14-.39-1.7-.62-.54-.22-1.04-.51-1.49-.88-.47-.38-.84-.87-1.08-1.42s-.34-1.16-.3-1.76c-.02-.65.11-1.29.37-1.88s.66-1.11 1.15-1.53c1.37-1 3.04-1.49 4.73-1.37.87 0 1.73.08 2.59.25.66.12 1.32.29 1.95.51-.12.66-.28 1.32-.48 1.97-.61-.19-1.22-.35-1.84-.48-.76-.17-1.54-.25-2.32-.25-1.05-.1-2.09.16-2.97.74-.29.23-.51.53-.67.87-.15.34-.23.7-.21 1.07-.01.4.09.79.29 1.13.21.31.48.58.8.78.35.23.73.42 1.13.56.42.16.88.32 1.38.45.62.21 1.25.43 1.87.67.62.23 1.19.54 1.72.93.52.4.96.91 1.28 1.48.35.69.52 1.45.5 2.23.01.78-.16 1.55-.5 2.25-.32.67-.79 1.26-1.38 1.72-.64.49-1.36.86-2.13 1.09-.89.26-1.82.38-2.75.37-.99 0-1.97-.06-2.94-.21-.71-.1-1.41-.28-2.08-.55.14-.68.34-1.35.62-1.99z"/><path d="m117.17 13.61h-2.98c-.01-.15-.01-.29 0-.44v-1.48h2.98v-3.3l2.13-2.09h.14v5.46h4.74v1.48c.01.15.01.29 0 .44h-4.74v11.41c-.02.47.06.94.22 1.37.12.29.31.54.55.74s.52.34.83.4.63.08.95.08c.71.01 1.42-.1 2.09-.32.17.63.28 1.27.34 1.92-.94.27-1.91.4-2.89.38-1.15.05-2.28-.32-3.17-1.04-.44-.45-.78-.98-.99-1.58-.21-.59-.29-1.22-.23-1.85l.04-11.6z"/><path d="m133.02 29.63c-1.18.03-2.36-.21-3.44-.7-.96-.45-1.79-1.11-2.45-1.94-.68-.87-1.18-1.86-1.47-2.93-.33-1.17-.49-2.38-.48-3.6 0-1.22.16-2.44.48-3.62.3-1.06.79-2.05 1.47-2.91.65-.83 1.49-1.49 2.45-1.94 1.08-.49 2.25-.74 3.44-.71 1.18-.02 2.35.22 3.42.71.95.45 1.79 1.11 2.45 1.94.67.87 1.17 1.86 1.47 2.91.34 1.18.5 2.39.49 3.62 0 1.22-.16 2.43-.49 3.6-.3 1.06-.8 2.05-1.47 2.93-.66.83-1.49 1.49-2.45 1.94-1.07.49-2.24.73-3.42.7zm0-1.99c.79.06 1.59-.09 2.31-.43s1.34-.85 1.81-1.5c.89-1.61 1.36-3.42 1.36-5.26s-.47-3.65-1.36-5.26c-.5-.61-1.13-1.1-1.84-1.44s-1.49-.51-2.28-.51-1.57.18-2.28.51c-.71.34-1.34.83-1.84 1.44-.89 1.61-1.36 3.42-1.36 5.26s.47 3.65 1.36 5.26c.47.65 1.09 1.16 1.81 1.5s1.52.48 2.31.42z"/><path d="m144.25 11.75h2.06c0 .41.08.91.11 1.47s0 1.07 0 1.53c.47-.86 1.12-1.59 1.92-2.14.97-.63 2.12-.94 3.27-.88h.78c.07.36.1.73.11 1.1 0 .36-.04.72-.11 1.07h-.76c-.69-.03-1.38.09-2.03.34-.65.26-1.23.65-1.71 1.14-1.06 1.4-1.55 3.16-1.38 4.91v9c-.19.01-.38.01-.56 0h-1.11c-.2.01-.39.01-.59 0z"/><path d="m154.97 4.51h12.93c.05.24.09.49.11.74v1.55c-.02.25-.06.51-.11.76h-9.42v7.26h7.88c.05.25.08.51.1.77.05.52.05 1.04 0 1.55-.02.26-.05.52-.1.77h-7.88v11.3c-.28.05-.56.09-.84.11h-1.82c-.29-.02-.57-.06-.85-.11z"/><path d="m170.36 4.03.85-.11h1.68c.32 0 .59.07.84.11v19.86c-.02.51.04 1.02.18 1.51.08.32.24.61.47.84.19.19.43.33.69.39.28.06.56.08.84.08h.7c.23-.01.45-.05.67-.1.21.85.31 1.73.3 2.61-.38.13-.77.2-1.17.22h-1.26c-.63 0-1.25-.08-1.86-.25-.58-.14-1.11-.42-1.55-.82s-.78-.89-.99-1.45c-.28-.73-.41-1.51-.38-2.3v-20.59z"/><path d="m186.17 29.62c-1.24.03-2.47-.21-3.62-.7-.99-.44-1.87-1.1-2.57-1.94-.71-.86-1.23-1.86-1.54-2.93-.66-2.38-.66-4.9 0-7.29.31-1.06.84-2.06 1.54-2.91.7-.84 1.58-1.51 2.57-1.97 2.31-.95 4.91-.95 7.22 0 1 .46 1.88 1.13 2.58 1.97.7.86 1.22 1.85 1.53 2.91.66 2.38.66 4.9 0 7.29-.3 1.07-.82 2.07-1.53 2.93-.7.83-1.59 1.5-2.58 1.94-1.14.49-2.36.73-3.6.7zm0-2.75c.68.05 1.37-.09 1.98-.39s1.14-.76 1.52-1.33c.74-1.48 1.13-3.11 1.13-4.77s-.39-3.29-1.13-4.77c-.39-.56-.91-1.02-1.53-1.32-.61-.3-1.3-.43-1.98-.39-.68-.05-1.36.09-1.97.39s-1.14.75-1.52 1.32c-.73 1.48-1.11 3.12-1.11 4.77s.38 3.29 1.11 4.77c.38.57.9 1.03 1.51 1.33s1.29.44 1.98.39z"/><path d="m194.88 11.59.96-.11h1.83c.34 0 .63.07.88.11l3.44 14.39 3.89-14.39.82-.11h1.87c.26.01.51.04.77.08l3.85 14.16 3.44-14.16.76-.11h1.68l.93.11-5.25 17.62c-.3 0-.6.08-.92.11s-.58 0-.84 0h-.82c-.3 0-.59 0-.89-.11l-3.78-13.33-3.95 13.33c-.33 0-.63.08-.95.11s-.59 0-.84 0h-.84c-.29-.02-.57-.06-.85-.11l-5.18-17.6z"/></g><path d="m32.82 16.39c-.02-4.02-1.51-7.9-4.18-10.9-2.68-3.01-6.36-4.93-10.35-5.41v4.62c3.39.45 6.5 2.12 8.75 4.69s3.49 5.87 3.49 9.29-1.24 6.72-3.49 9.29-5.36 4.24-8.75 4.69c3.99-.48 7.67-2.4 10.34-5.39 2.68-3 4.17-6.87 4.19-10.88z" fill="#fcb32c"/><path d="m2.29 18.63c0-3.46 1.27-6.8 3.57-9.38s5.47-4.23 8.91-4.63v-4.62c-4.05.41-7.8 2.3-10.53 5.32s-4.24 6.94-4.24 11.01 1.51 7.99 4.24 11.01 6.48 4.91 10.53 5.32c-3.44-.4-6.61-2.06-8.91-4.64-2.3-2.59-3.57-5.93-3.57-9.39z" fill="#255ea1"/><path d="m28.19 16.35c0 2.8-1 5.5-2.81 7.64-1.81 2.13-4.33 3.55-7.09 3.99v4.69c3.39-.45 6.5-2.12 8.75-4.69s3.49-5.87 3.49-9.29-1.24-6.72-3.49-9.29-5.36-4.24-8.75-4.69c2.76.45 5.27 1.87 7.09 4 1.81 2.13 2.81 4.84 2.81 7.64z" fill="#f57f2d"/><path d="m2.29 18.63c0 3.46 1.28 6.8 3.58 9.38s5.47 4.23 8.91 4.64v-4.69c-2.84-.37-5.45-1.75-7.34-3.9s-2.94-4.92-2.94-7.78 1.04-5.63 2.94-7.78c1.89-2.15 4.5-3.54 7.34-3.9-3.44.4-6.62 2.05-8.92 4.64s-3.57 5.93-3.56 9.4z" fill="#1b4178"/></g></svg>