<svg xmlns="http://www.w3.org/2000/svg" viewBox="0 0 400 60" fill="none">
  <!-- NVIDIA Eye -->
  <path d="M17.2 20.4c0-.2.2-.2.2-.2 4.8-.6 9.2 1.2 12.6 4.8v-7c-1.2-.4-2.4-.6-3.6-.8-7.4-.6-13.8 2.8-18 8.2v10.4c4-5.4 8.6-9.6 14.2-10.2-.2-.2-.2-.2-.2-.2-4.2-1-8.4.4-11.6 3.4V20.4h6.4zm-6.4 8.8v7.6c2.2-2.6 5-4.6 8.2-5.6-3-0.2-5.8.6-8.2 2v-4zm22.4-8.6v4c-3.4-3.6-7.8-5.4-12.6-4.8 5.2 1 9.6 4.8 12.6 9.4v-8.6zm3.6 17.8V19.2h-3.6v24.4c-4.4-7.4-11.4-13-19.8-13.6v3.4c7.2.6 13.4 5.6 17.4 12l.2.2c.4.6.8 1.4 1.2 2h4.6z" fill="#76B900"/>
  <!-- NVIDIA Text -->
  <text x="48" y="40" font-family="Arial Black, Arial, sans-serif" font-weight="900" font-size="28" fill="#76B900">NVIDIA</text>
  <!-- Inception Text -->
  <text x="178" y="40" font-family="Arial, sans-serif" font-weight="400" font-size="22" fill="#333333" letter-spacing="2">INCEPTION</text>
</svg>
