<svg xmlns="http://www.w3.org/2000/svg" viewBox="0 0 960 460" font-family="Source Sans 3, system-ui, sans-serif">
  <defs>
    <marker id="arrow2" viewBox="0 0 10 10" refX="9" refY="5" markerWidth="7" markerHeight="7" orient="auto-start-reverse">
      <path d="M0,0 L10,5 L0,10 z" fill="#3d3d3d"/>
    </marker>
  </defs>
  <rect width="960" height="460" fill="#F5F6F7"/>
  <text x="480" y="36" text-anchor="middle" font-size="22" font-weight="700" fill="#0D0D0D">Help Docs — orchestrator and writer</text>
  <text x="480" y="58" text-anchor="middle" font-size="13" fill="#6b6b6b">Two Claude passes. The librarian decides. The writer writes. One PR per trigger.</text>

  <!-- Inputs -->
  <rect x="30" y="100" width="200" height="40" rx="8" fill="#ffffff" stroke="#E1E3E6" stroke-width="1.5"/>
  <text x="130" y="126" text-anchor="middle" font-size="12" fill="#0D0D0D">PR title + body + diff</text>

  <rect x="30" y="160" width="200" height="40" rx="8" fill="#ffffff" stroke="#E1E3E6" stroke-width="1.5"/>
  <text x="130" y="186" text-anchor="middle" font-size="12" fill="#0D0D0D">Existing docs index (JSON)</text>

  <!-- Orchestrator -->
  <rect x="290" y="90" width="230" height="130" rx="12" fill="#023E25"/>
  <text x="405" y="120" text-anchor="middle" font-size="14" font-weight="700" fill="#ffffff">Orchestrator (librarian)</text>
  <text x="405" y="142" text-anchor="middle" font-size="11" fill="#E8FBF1">Sonnet 4.5 + short prompt</text>
  <text x="405" y="170" text-anchor="middle" font-size="11" fill="#ffffff">Decides: update vs create vs skip</text>
  <text x="405" y="188" text-anchor="middle" font-size="11" fill="#ffffff">Prefers updates. Max 3 actions.</text>
  <text x="405" y="206" text-anchor="middle" font-size="11" fill="#ffffff">Returns strict JSON action list.</text>

  <!-- actions.json -->
  <rect x="580" y="140" width="160" height="40" rx="8" fill="#ffffff" stroke="#E1E3E6" stroke-width="1.5"/>
  <text x="660" y="166" text-anchor="middle" font-size="12" fill="#0D0D0D">actions.json</text>

  <!-- Arrows -->
  <line x1="232" y1="120" x2="288" y2="130" stroke="#3d3d3d" stroke-width="1.5" marker-end="url(#arrow2)"/>
  <line x1="232" y1="180" x2="288" y2="170" stroke="#3d3d3d" stroke-width="1.5" marker-end="url(#arrow2)"/>
  <line x1="522" y1="160" x2="578" y2="160" stroke="#3d3d3d" stroke-width="1.5" marker-end="url(#arrow2)"/>

  <!-- Writer loop -->
  <rect x="60" y="270" width="840" height="150" rx="12" fill="#ffffff" stroke="#E1E3E6" stroke-width="1.5" stroke-dasharray="4 4"/>
  <text x="80" y="296" font-size="12" font-weight="700" fill="#6b6b6b">Writer loop — one Claude call per action</text>

  <rect x="80" y="320" width="220" height="84" rx="10" fill="#E8FBF1" stroke="#00C26D" stroke-width="1.5"/>
  <text x="190" y="348" text-anchor="middle" font-size="13" font-weight="700" fill="#023E25">Action 1 — update</text>
  <text x="190" y="368" text-anchor="middle" font-size="11" fill="#023E25">Receives: existing doc, brief,</text>
  <text x="190" y="384" text-anchor="middle" font-size="11" fill="#023E25">diff. Rewrites stale sections.</text>

  <rect x="320" y="320" width="220" height="84" rx="10" fill="#E8FBF1" stroke="#00C26D" stroke-width="1.5"/>
  <text x="430" y="348" text-anchor="middle" font-size="13" font-weight="700" fill="#023E25">Action 2 — create</text>
  <text x="430" y="368" text-anchor="middle" font-size="11" fill="#023E25">Receives: brief, diff, target</text>
  <text x="430" y="384" text-anchor="middle" font-size="11" fill="#023E25">section. Writes new MDX.</text>

  <rect x="560" y="320" width="220" height="84" rx="10" fill="#F5F6F7" stroke="#E1E3E6" stroke-width="1.5"/>
  <text x="670" y="348" text-anchor="middle" font-size="13" font-weight="700" fill="#0D0D0D">Action 3 — skip</text>
  <text x="670" y="368" text-anchor="middle" font-size="11" fill="#6b6b6b">Orchestrator said no doc</text>
  <text x="670" y="384" text-anchor="middle" font-size="11" fill="#6b6b6b">changes needed. No call.</text>

  <path d="M 660 180 Q 660 250 400 260 L 400 270" fill="none" stroke="#3d3d3d" stroke-width="1.5" marker-end="url(#arrow2)"/>

  <text x="480" y="445" text-anchor="middle" font-size="11" fill="#6b6b6b">All drafts collected into /tmp/drafts, copied into the live docs tree, committed on a bot branch, opened as a single PR against develop.</text>
</svg>
