<svg xmlns="http://www.w3.org/2000/svg" viewBox="0 0 960 320" font-family="Source Sans 3, system-ui, sans-serif">
  <defs>
    <marker id="arrow3" viewBox="0 0 10 10" refX="9" refY="5" markerWidth="7" markerHeight="7" orient="auto-start-reverse">
      <path d="M0,0 L10,5 L0,10 z" fill="#3d3d3d"/>
    </marker>
  </defs>
  <rect width="960" height="320" fill="#F5F6F7"/>
  <text x="480" y="36" text-anchor="middle" font-size="22" font-weight="700" fill="#0D0D0D">Preview to production -- no rewrite</text>
  <text x="480" y="58" text-anchor="middle" font-size="13" fill="#6b6b6b">GitHub Actions only fires on PRs merged INTO develop. The develop -&gt; main promotion merge never re-runs the pipeline.</text>

  <!-- develop lane -->
  <rect x="60" y="110" width="840" height="60" rx="8" fill="#ffffff" stroke="#E1E3E6" stroke-width="1.5"/>
  <text x="80" y="146" font-size="13" font-weight="700" fill="#0D0D0D">develop</text>
  <circle cx="200" cy="140" r="10" fill="#00C26D"/>
  <circle cx="320" cy="140" r="10" fill="#00C26D"/>
  <circle cx="440" cy="140" r="10" fill="#00C26D"/>
  <circle cx="560" cy="140" r="10" fill="#00C26D"/>
  <circle cx="680" cy="140" r="10" fill="#00C26D"/>
  <line x1="200" y1="140" x2="680" y2="140" stroke="#00C26D" stroke-width="2"/>

  <text x="200" y="100" text-anchor="middle" font-size="10" fill="#6b6b6b">feat PR</text>
  <text x="320" y="94" text-anchor="middle" font-size="10" fill="#6b6b6b">Servantium Bot:</text>
  <text x="320" y="106" text-anchor="middle" font-size="10" fill="#6b6b6b">release-note PR</text>
  <text x="440" y="94" text-anchor="middle" font-size="10" fill="#6b6b6b">Servantium Bot:</text>
  <text x="440" y="106" text-anchor="middle" font-size="10" fill="#6b6b6b">help-docs PR</text>
  <text x="560" y="100" text-anchor="middle" font-size="10" fill="#6b6b6b">human edit</text>
  <text x="680" y="100" text-anchor="middle" font-size="10" fill="#6b6b6b">...</text>

  <text x="860" y="146" font-size="11" fill="#023E25" font-weight="700">test.servantium.com</text>

  <!-- main lane -->
  <rect x="60" y="220" width="840" height="60" rx="8" fill="#ffffff" stroke="#E1E3E6" stroke-width="1.5"/>
  <text x="80" y="256" font-size="13" font-weight="700" fill="#0D0D0D">main</text>
  <circle cx="200" cy="250" r="10" fill="#023E25"/>
  <circle cx="720" cy="250" r="10" fill="#023E25"/>
  <line x1="200" y1="250" x2="720" y2="250" stroke="#023E25" stroke-width="2"/>

  <text x="720" y="210" text-anchor="middle" font-size="10" fill="#6b6b6b">promotion merge</text>

  <text x="860" y="256" font-size="11" fill="#023E25" font-weight="700">servantium.com</text>

  <!-- Promotion arrow from develop down to main -->
  <path d="M 680 150 Q 720 185 720 218" fill="none" stroke="#3d3d3d" stroke-width="1.5" stroke-dasharray="4 4" marker-end="url(#arrow3)"/>
  <text x="746" y="195" font-size="10" fill="#6b6b6b">git merge, no re-run</text>
</svg>
